<svg xmlns="http://www.w3.org/2000/svg" viewBox="0 0 1000 1000" xml:space="preserve"><switch><g><circle fill="#382B73" cx="500" cy="500" r="398"/><circle fill="#473080" cx="500" cy="500" r="344.3"/><path fill="#382B73" d="M642.7 322.2h-89l-20-20H357.3c-13.8 0-25 11.2-25 25v365.5c0 12.2 8.8 22.4 20.4 24.6 2.2 11.6 12.3 20.4 24.6 20.4h265.4c13.8 0 25-11.2 25-25V347.2c0-13.8-11.2-25-25-25z"/><g><path fill="#BCBEC0" d="M642.7 717.8H377.3c-13.8 0-25-11.2-25-25V337.2c0-13.8 11.2-25 25-25h265.4c13.8 0 25 11.2 25 25v355.5c0 13.9-11.2 25.1-25 25.1z"/><path fill="#E6E7E8" d="M642.7 707.8H377.3c-13.8 0-25-11.2-25-25V327.2c0-13.8 11.2-25 25-25h265.4c13.8 0 25 11.2 25 25v355.5c0 13.9-11.2 25.1-25 25.1z"/><g><path fill="#BCBEC0" d="M543.7 292.2H357.3c-13.8 0-25 11.2-25 25v355.5c0 13.8 11.2 25 25 25h265.4c13.8 0 25-11.2 25-25V396.2l-104-104z"/><path fill="#FFF" d="M533.7 282.2H357.3c-13.8 0-25 11.2-25 25v355.5c0 13.8 11.2 25 25 25h265.4c13.8 0 25-11.2 25-25V396.2l-114-114z"/><g fill="#D1D3D4"><path d="M598 450H382c-5.5 0-10-4.5-10-10s4.5-10 10-10h216c5.5 0 10 4.5 10 10s-4.5 10-10 10zM598 510.7H382c-5.5 0-10-4.5-10-10s4.5-10 10-10h216c5.5 0 10 4.5 10 10s-4.5 10-10 10zM598 571.3H382c-5.5 0-10-4.5-10-10s4.5-10 10-10h216c5.5 0 10 4.5 10 10 0 5.6-4.5 10-10 10zM598 632H382c-5.5 0-10-4.5-10-10s4.5-10 10-10h216c5.5 0 10 4.5 10 10s-4.5 10-10 10z"/></g><path fill="#BCBEC0" d="M647.7 396.2h-89c-13.8 0-25-11.2-25-25v-89l114 114z"/></g></g></g></switch></svg>